<?xml version="1.0" encoding="UTF-8"?>
<svg xmlns="http://www.w3.org/2000/svg" xmlns:xlink="http://www.w3.org/1999/xlink" viewBox="0 0 50 50" width="50px" height="50px">
<g id="surface53815">
<path style=" stroke:none;fill-rule:nonzero;fill:rgb(100%,100%,100%);fill-opacity:1;" d="M 24.816406 1.996094 C 23.660156 2.007812 22.492188 2.105469 21.320312 2.296875 C 8.792969 4.328125 0.265625 16.15625 2.296875 28.683594 C 4.328125 41.207031 16.15625 49.734375 28.683594 47.703125 C 41.210938 45.671875 49.734375 33.84375 47.703125 21.316406 C 45.863281 9.964844 35.976562 1.898438 24.816406 1.996094 Z M 24.835938 3.996094 C 35.039062 3.898438 44.046875 11.253906 45.730469 21.636719 C 47.589844 33.097656 39.824219 43.871094 28.363281 45.726562 C 16.902344 47.585938 6.128906 39.820312 4.273438 28.359375 C 2.414062 16.902344 10.179688 6.128906 21.640625 4.269531 C 22.714844 4.097656 23.78125 4.007812 24.835938 3.996094 Z M 12 15 L 12 35 L 38 35 L 38 15 Z M 14 17 L 36 17 L 36 18.023438 C 35.5 18.460938 27.066406 25.808594 26.339844 26.445312 C 25.789062 26.917969 25.253906 27 25 27 C 24.75 27 24.207031 26.921875 23.660156 26.445312 C 22.9375 25.8125 14.5 18.460938 14 18.023438 Z M 14 20.675781 C 15.328125 21.835938 17.003906 23.292969 19.277344 25.273438 L 14 29.449219 Z M 36 20.675781 L 36 29.449219 L 30.722656 25.277344 C 32.992188 23.296875 34.671875 21.835938 36 20.675781 Z M 20.808594 26.613281 C 21.265625 27.007812 22.230469 27.851562 22.347656 27.953125 C 23.300781 28.78125 24.320312 29 25 29 C 25.679688 29 26.699219 28.78125 27.652344 27.953125 L 27.652344 27.949219 C 27.769531 27.851562 28.734375 27.007812 29.1875 26.613281 L 36 32 L 36 33 L 14 33 L 14 32 Z M 20.808594 26.613281 "/>
</g>
</svg>
