<?xml version="1.0" encoding="UTF-8"?>
<svg xmlns="http://www.w3.org/2000/svg" xmlns:xlink="http://www.w3.org/1999/xlink" viewBox="0 0 50 50" width="50px" height="50px">
<g id="surface2245469">
<path style=" stroke:none;fill-rule:nonzero;fill:rgb(100%,100%,100%);fill-opacity:1;" d="M 18.6875 5 C 16.976562 5 15.433594 5.441406 14.15625 6.46875 C 12.878906 7.496094 11.898438 9.03125 11.0625 11.125 C 11.0625 11.136719 11.0625 11.144531 11.0625 11.15625 L 10.40625 13 L 6.5 13 C 2.945312 13 0 15.957031 0 19.59375 L 0 34.5 C 0 37.714844 2.292969 40.386719 5.28125 40.96875 L 5.03125 41.90625 L 5.03125 41.9375 C 4.820312 42.675781 4.910156 43.472656 5.34375 44.0625 C 5.78125 44.660156 6.546875 45 7.3125 45 L 11 45 C 12.585938 45 13.910156 43.945312 14.34375 42.5 C 14.355469 42.488281 14.363281 42.480469 14.375 42.46875 L 14.75 41.09375 L 20.4375 41.09375 L 21.21875 42.65625 C 21.910156 44.039062 23.277344 45 24.8125 45 L 32.1875 45 C 33.722656 45 35 43.722656 35 42.1875 L 35 34.8125 C 35.003906 34.742188 35 34.664062 35 34.59375 C 35 34.5625 35 34.53125 35 34.5 L 35 34 L 40 34 C 40.351562 34 41.335938 34.558594 42.375 35.3125 C 43.414062 36.066406 44.53125 37 46 37 L 49 37 C 49.265625 37.003906 49.523438 36.898438 49.710938 36.710938 C 49.898438 36.523438 50.003906 36.265625 50 36 L 50 18 C 50.003906 17.734375 49.898438 17.476562 49.710938 17.289062 C 49.523438 17.101562 49.265625 16.996094 49 17 L 46 17 C 44.550781 17 43.488281 17.9375 42.4375 18.6875 C 41.386719 19.4375 40.351562 20 40 20 L 35 20 L 35 19.59375 C 35 19.488281 34.972656 19.386719 34.96875 19.28125 C 34.992188 19.191406 35.003906 19.09375 35 19 L 35 13 L 37.15625 13 C 37.515625 14.128906 38.464844 15 39.6875 15 L 45.59375 15 C 46.339844 15 47.335938 14.738281 48.28125 13.96875 C 49.226562 13.199219 50 11.859375 50 10 C 50 8.140625 49.226562 6.800781 48.28125 6.03125 C 47.335938 5.261719 46.339844 5 45.59375 5 L 39.6875 5 C 38.464844 5 37.515625 5.871094 37.15625 7 L 33.125 7 C 31.941406 5.78125 30.3125 5 28.5 5 Z M 18.6875 7 L 28.5 7 C 30.945312 7 33 9.054688 33 11.5 L 33 14.875 C 32.421875 14.308594 31.753906 13.851562 31 13.53125 L 31 12 C 31 11.167969 30.625 10.4375 30.09375 9.90625 C 29.5625 9.375 28.832031 9 28 9 L 18 9 C 16.667969 9 15.332031 9.75 14.78125 11.125 C 14.769531 11.144531 14.757812 11.167969 14.75 11.1875 L 14.15625 13 L 12.53125 13 L 12.9375 11.875 L 12.9375 11.84375 C 13.695312 9.953125 14.511719 8.75 15.40625 8.03125 C 16.304688 7.308594 17.296875 7 18.6875 7 Z M 39.6875 7 L 45.59375 7 C 45.746094 7 46.46875 7.132812 47 7.5625 C 47.53125 7.992188 48 8.660156 48 10 C 48 11.339844 47.53125 12.007812 47 12.4375 C 46.46875 12.867188 45.746094 13 45.59375 13 L 39.6875 13 C 39.457031 13 39 12.613281 39 12 L 39 8 C 39 7.386719 39.457031 7 39.6875 7 Z M 34.46875 9 L 37 9 L 37 11 L 34.96875 11 C 34.914062 10.296875 34.734375 9.625 34.46875 9 Z M 18 11 L 28 11 C 28.167969 11 28.4375 11.125 28.65625 11.34375 C 28.875 11.5625 29 11.832031 29 12 L 29 13.03125 C 28.832031 13.019531 28.667969 13 28.5 13 L 16.25 13 L 16.625 11.875 C 16.632812 11.859375 16.648438 11.859375 16.65625 11.84375 L 16.65625 11.8125 C 16.914062 11.238281 17.359375 11 18 11 Z M 6.5 15 L 10.8125 15 C 11.003906 15.058594 11.214844 15.058594 11.40625 15 L 28.5 15 C 30.945312 15 33 17.03125 33 19.59375 L 33 34.5 C 33 34.542969 33 34.582031 33 34.625 C 32.933594 37.128906 30.902344 39.09375 28.5 39.09375 L 21.40625 39.09375 C 21.128906 38.960938 20.808594 38.960938 20.53125 39.09375 L 14.40625 39.09375 C 14.140625 38.96875 13.828125 38.96875 13.5625 39.09375 L 7 39.09375 C 6.835938 39.015625 6.652344 38.980469 6.46875 39 C 6.382812 39.011719 6.300781 39.03125 6.21875 39.0625 C 3.902344 38.914062 2 36.960938 2 34.5 L 2 19.59375 C 2 17.03125 4.054688 15 6.5 15 Z M 6.8125 18.90625 C 6.28125 18.996094 5.894531 19.460938 5.90625 20 L 5.90625 28 C 5.902344 28.289062 6.019531 28.570312 6.222656 28.777344 C 6.429688 28.980469 6.710938 29.097656 7 29.09375 L 19 29.09375 C 19.289062 29.097656 19.570312 28.980469 19.777344 28.777344 C 19.980469 28.570312 20.097656 28.289062 20.09375 28 L 20.09375 20 C 20.097656 19.710938 19.980469 19.429688 19.777344 19.222656 C 19.570312 19.019531 19.289062 18.902344 19 18.90625 L 7 18.90625 C 6.96875 18.90625 6.9375 18.90625 6.90625 18.90625 C 6.875 18.90625 6.84375 18.90625 6.8125 18.90625 Z M 46 19 L 48 19 L 48 35 L 46 35 C 45.570312 35 44.566406 34.433594 43.53125 33.6875 C 42.746094 33.121094 41.96875 32.449219 41 32.15625 L 41 21.84375 C 41.972656 21.550781 42.765625 20.878906 43.5625 20.3125 C 44.613281 19.5625 45.648438 19 46 19 Z M 8.09375 21.09375 L 17.90625 21.09375 L 17.90625 26.90625 L 8.09375 26.90625 Z M 35 22 L 39 22 L 39 32 L 35 32 Z M 33 39.25 L 33 42.1875 C 33 42.652344 32.652344 43 32.1875 43 L 24.8125 43 C 24.347656 43 23.308594 42.367188 23 41.75 L 22.6875 41.09375 L 28.5 41.09375 C 30.230469 41.09375 31.828125 40.390625 33 39.25 Z M 7.34375 41.09375 L 12.65625 41.09375 L 12.4375 41.90625 L 12.4375 41.9375 C 12.261719 42.484375 11.605469 43 11 43 L 7.3125 43 C 7.078125 43 7.007812 42.925781 6.96875 42.875 C 6.929688 42.824219 6.890625 42.753906 6.96875 42.5 C 6.96875 42.488281 6.96875 42.480469 6.96875 42.46875 Z M 7.34375 41.09375 "/>
</g>
</svg>
